<svg xmlns="http://www.w3.org/2000/svg" viewBox="0 0 1744 1744" fill="none" shape-rendering="auto"><metadata xmlns:rdf="http://www.w3.org/1999/02/22-rdf-syntax-ns#" xmlns:xsi="http://www.w3.org/2001/XMLSchema-instance" xmlns:dc="http://purl.org/dc/elements/1.1/" xmlns:dcterms="http://purl.org/dc/terms/"><rdf:RDF><rdf:Description><dc:title>Notionists</dc:title><dc:creator>Zoish</dc:creator><dc:source xsi:type="dcterms:URI">https://heyzoish.gumroad.com/l/notionists</dc:source><dcterms:license xsi:type="dcterms:URI">https://creativecommons.org/publicdomain/zero/1.0/</dcterms:license><dc:rights>Remix of „Notionists” (https://heyzoish.gumroad.com/l/notionists) by „Zoish”, licensed under „CC0 1.0” (https://creativecommons.org/publicdomain/zero/1.0/)</dc:rights></rdf:Description></rdf:RDF></metadata><mask id="viewboxMask"><rect width="1744" height="1744" rx="872" ry="872" x="0" y="0" fill="#fff" /></mask><g mask="url(#viewboxMask)"><rect fill="#b6e3f4" width="1744" height="1744" x="0" y="0" /><g transform="translate(531 487)"><path d="M554 727.7c-99.2 297-363.8 388.6-503.7 19.8-19.3-50.7 31-69.5 66.2-91.9 24.1-15.3 36.8-28.5 35.3-42.2-7-64.4-36.9-243.8-36.9-243.8l-3-5.8s.7-1.6-2.2 1.2c-3 3-9.9 34.2-37 34.2-24.5 0-49.2-10.9-61-86.3C7.2 285.6 9.6 214 40 201c12.5-5.3 24-7.2 35.2-.8 11.3 6.4-13-22 112-126C268.4 6.4 396.7-3.5 448.5 8 500.3 19.5 552 44.8 574.9 98.5c27.8 65-25.9 114.3-14 262.5-2.2 53.6.8 171.2-146.6 210.6-28 7.5-19.3 48.4 22.7 58.4 67 21 117 72.3 117 97.9" fill="#fff"/><path fill-rule="evenodd" clip-rule="evenodd" d="m554 266.2.1-1.4c4.1-36.4 8.2-71.7 27.1-103.4 6.5 4.4 5.7 10 3.7 15.2-19.9 51.2-18 104.4-16.2 157.6l.4 14c2.1 66.4-14.5 126.8-58.7 177.5-15.4 17.6-35.8 29.8-56.5 40.3-21.4 11-25.9 20.1-19.2 43.6l.8 2.6c1.4 3.9 2.8 7.9-1 11.8-4.5 4.6-9.5 3.3-14.8 1.8l-.6-.1a406.4 406.4 0 0 1-137-68.3c-6-4.4-10.8-10.3-15.5-16.1l-.3-.4c-2.5-3-3-7.8.5-10.4 3.3-2.5 5.8-.5 8.7 1.8l1 .9a145.5 145.5 0 0 0 76.3 31.7c13.4 1.4 26.6.9 40 .4 7.4-.3 14.8-.6 22.3-.5 10.2 0 18.7-4.7 26.7-9.2l2.8-1.6c27.8-15.5 54.3-32.8 72.2-60.7 16.1-25 25.9-52.2 31.6-80.9 7.2-36.1 6.6-72.7 6-109.8-.3-12-.5-24.2-.5-36.4ZM50.6 190.8c21.9-1.7 34 11.2 44.3 26.3a140.4 140.4 0 0 1 22.4 61.5c.5 3.7 1 7.6-1.2 11.3-4.5.6-4.9-3-5-5.6-.5-20.7-9.7-38.7-18.9-56.1-6.6-12.5-16.2-24.6-31.4-27.6-17.2-3.5-33 12-40.8 32.2-14.5 37.6-12 74.6 1.4 111 5.8 15.9 13.1 32.1 27.8 43.2 14.8 11.3 32.7 9.3 43.6-5.7l2-2.5c2-2.6 4-5.1 5-8 2.1-5.8 5.4-11.2 11.3-10.4 6.8 1 8 8.3 8.7 14a3661 3661 0 0 0 22 156.7l5.9 38.8c2.6 17.1 5.6 41.7 3.6 52.1a28 28 0 0 0-.3 2.2c-.4 2.8-.6 5-4.2 5.5-4.9.8-7-2-7.7-6.4-2.3-17-3-23.6-4-49.6-.9-25.2-5.6-50-10.4-74.9l-5-27c-5.2-30.8-10.3-62-10.8-97l-2 3c-7.6 11.3-13.7 20.5-24.5 24a40.5 40.5 0 0 1-46.1-12.5 127.8 127.8 0 0 1-28.8-55.8c-8.4-34-9.9-67.1.9-100.6 5.2-16.1 23.7-44.7 42.2-42Zm34.6 127.5c4.4 3.2 8.4 6 12-5.4-1.1-42.2-14.7-69.2-35.8-70.3 11.2 14.6 22 28.8 23 48.5a32.3 32.3 0 0 1-10.7-8.8c-2-2.2-4-4.4-6.5-6l-3-2.4c-4.8-3.6-9.7-7.4-17.8-4.5 3.8 5.8 9 10 14.3 14 6 4.7 12 9.3 15.6 16.5-10.6 7.7-15.2 17.7-9.7 29.9 4.8 10.5 11.9 19.2 25.9 19.8-.6-6.3-4.7-10.9-8.8-15.4-5-5.4-9.7-10.6-7.5-18.6 3.2-1.5 6.2.7 9 2.7Z" fill="#000"/></g><g transform="translate(178 1057)"><path d="M1312 691.3 3 694s25.8-189 56.2-235.7c16.3-25-10.6-45-16.4-70.3-5.8-25.2-11.8-57.9-10.5-67.4 1.2-9.5-1.4-29.3-4.3-43.3-3-14-.2-28.3-7-40.5-7-12.1-8-25 0-30.7 8-5.8 341.2-123.5 341.2-123.5L372.5 61s47-34.8 72.2-40.7c25.2-5.9 47.1-9.7 47.1-9.7s-5.2 24.3-1.4 36.6c4 12.4 93 68.9 154.7 63.8 72-6 139.4-45.2 144.8-60.7 5.4-15.6-3.3-19-6.6-31.8C779.9 5.7 788 1 802.6 9c14.5 8 211.3 110.9 254 130.4 42.6 19.6 202.6 69.4 202.6 69.4s30.2 8.8 26.7 17.2c-7.6 17.9-24.1 1-24.1 49.6 0 30-25.3 125.6-25.3 125.6s39.6 123.7 46.2 148.2c6.7 24.5 29.3 142 29.3 142Z" fill="#000"/><mask id="bodyVariant06-a" style="mask-type:luminance" maskUnits="userSpaceOnUse" x="516" y="231" width="267" height="460"><path d="m528 691-12-460h266.5L773 691H528Z" fill="#fff"/></mask><g mask="url(#bodyVariant06-a)"><g transform="translate(396 278)"></g></g><path fill-rule="evenodd" clip-rule="evenodd" d="M409.2 694c-2.6-57.2-5-114.3-4.4-171.6.8-67.8.7-135.8-.7-203.6-.2-8.6 0-17.2.1-25.7.3-16.5.5-33-1.4-49.5-.2-1.4-.2-2.8-.2-4.3 0-3.7 0-7.6-2.7-11.7l-6.3 3c-8 4-16 8.1-25.8 6.6-11.6-1.9-17.4-6.4-16.6-18.3a489 489 0 0 1 4.5-39.6c2-12.6 2.6-25.3 3.2-38.2.8-15.2 1.6-30.7 4.5-46.4-18.3 5-35.6 10-52 17.8-22.4 10.7-46.6 16.2-70.6 21.7l-5.4 1.2c-25 5.6-49.5 13-73.4 22.2-8.8 3.4-17.8 6.4-26.8 9.4a376.2 376.2 0 0 0-41.7 15.7 993.2 993.2 0 0 0-61.3 32c-7.5 4.2-8.7 11.1-2 18a21.7 21.7 0 0 1 5 23.8A23.5 23.5 0 0 0 37 275a61.3 61.3 0 0 1 4.3 28c0 4.3 0 8.6.3 12.7a281 281 0 0 0 34.8 109.3 467.7 467.7 0 0 1 20 44.4c5 11.8 9.8 23.6 15.4 35 2 4 12.6 30 24.9 61.9 1 2.8-.4 7.2-1.9 11.7-1.5 4.6-3 9.3-1.9 12.2 1.2 3 4.6 4.3 8.2 5.7 3.2 1 6.4 2.3 8.6 4.7 12.2 13.8 15.7 24 20.3 37.7l.2.4c7.5 22.1 8.5 47 8.6 54a32.6 32.6 0 0 1-14.3.2c2-14.3-1-27.3-4.1-40.3-1-4.6-2.2-9.2-3-13.9-2.8-15.3-9.5-26.4-24.5-31.7-10.5-3.6-13.8-10.2-12.7-21.8l1-7.5c1.4-9.9 3-20.1-3-29-15.5-23-26.6-48.3-37.9-74l-6.8-15.4-1.4 2.2a42.5 42.5 0 0 0-6 11.5l-8.4 29C46.2 542.2 34.6 582.3 26 623.2c-5 23.5-7.9 47-9.8 70.8H1.7c-3.5-11.5-1-22.5 1.5-33.5a185 185 0 0 0 2.3-11.1C12 609 22.4 569.7 32.8 530.3l.5-2.1c7.7-29.1 18.3-56.8 29.5-84.5 2.3-5.6 1.2-9.2-2.8-13.7-15.2-17.5-20.3-39.6-23.8-61.6l-1.8-10.8c-4-23.5-7.9-47-6-71-6.7-7.8-7.3-17.4-7.8-27-.6-10-1.2-20-8.7-28.3-6.4-7 2.5-25.2 15-32.2 33.2-18.5 66.8-36 103.5-46.8A517 517 0 0 0 181 134c16.9-7 34.5-10.8 52.1-14.8 11.2-2.5 22.3-5 33.2-8.2 13.6-4 26.7-9 40-14a420.5 420.5 0 0 1 51-17.2c7-1.7 11.3-6.1 11.4-13.6.1-7.7 4.2-12.3 10.1-16.7 22.5-16.9 48.7-25 74.8-33.2l3.4-1c4.2-1.4 8.1-3.2 12-5a65 65 0 0 1 20.5-7c3.3-.6 6.5-1.2 10.2 0 2 6.6-2 9.9-6.8 11.9l-15.4 6.3A806.2 806.2 0 0 1 425.2 42c-7.8 2.7-14.7 7-21.6 11.1-5.8 3.6-11.6 7.1-18 9.7-2.3 1-4.2 5.6-4.6 8.7-3.3 29.3-6.3 58.6-9.3 88l-1.4 13.2-1.4 14.1c-.8 8.6-1.7 17-2.7 25.6 0 .8-.2 1.5-.4 2.3-.5 3-1 6.1 1.8 8.5 3 2.4 5.7 1 8.4-.5l2.2-1c28.3-12.3 48.4-34.2 68.5-56 4.5-5 9-10 13.6-14.7 14.7-15.4 26.9-18.9 45.7-9.7 5.7 2.7 10.9 4.6 17.7 2.1-3.6-7.4-7.5-14.6-11.4-21.8-8.4-15.4-16.6-30.6-22.2-47.1-5-14.6-3.5-29.6-2.1-44.4l.3-3c.5-5.6 4.3-10.2 11.4-10.7 5.9 5.8 6 15.3 6 21-.2 25 18.1 33.3 34.7 40.8l.5.3c50.3 22.9 103.7 25 157.4 16.8a149.8 149.8 0 0 0 80.3-37.2c11.4-10.4 10-22.9 4.5-34.3-4.5-9-1.5-14.8 3.7-20.6 4.7-5.2 10.3-3 15.5-1l2.3 1c30.8 11 59 27.2 87.4 43.4l5 3a493 493 0 0 0 41.3 20.2c12.8 5.8 25.6 11.7 38 18.5 34.6 19 70.1 36.4 105.7 53.6 18.5 9 38.1 15.7 57.7 22.5l16.3 5.8c13.9 5 27.9 9.6 41.8 14.3 12 4 24 8 35.8 12.2 5.4 2 11 2.2 16.6 2.5 5.9.3 11.8.6 17.5 2.8l4.5 1.7c7 2.5 13.8 5 18.8 11.2 7.6 9.5 7.3 17.4-3 23.7-12.2 7.3-18.8 15.5-13.4 30.2 1.6 4.4-.3 9-2 13.3l-.5 1.2-.2.5c-10 25-16.8 79.6-18.6 93.4l-.3 2.8c-3.8 27 2.8 46 10.2 67.7a558 558 0 0 1 5.4 16.4c11.8 38.4 23.2 77 33.6 115.8a1073 1073 0 0 1 21.4 99c.6 3.4.4 7 .2 11v3a25.1 25.1 0 0 1-12.3.2c-9.4-69.9-29.7-136.2-50-202.4A3709 3709 0 0 1 1242 425a158 158 0 0 0-15 32.1 238.2 238.2 0 0 1-50.9 90l-1.2 1.3c-4 4.4-8.8 9.5-8 13.1 2.7 13-3.9 20.6-10.8 28.6l-3.2 3.8a41.5 41.5 0 0 0-8.6 20c-1.3 8.2-2.8 16.4-4.3 24.6a383.2 383.2 0 0 0-7.3 55.5h-14.3c2-6.1 2.4-13.2 3-22.2a250.7 250.7 0 0 1 11.8-67c.7-4 1.7-9.9 11-19.5 8.5-8.6 8.4-18.8 8.3-25.2 0-2.4 0-4.2.4-5.2 5.6-14.2 25.4-39.5 35.1-52 3-3.7 5-6.3 5.4-7.1 23.1-38 39.4-79.9 48-123.6 2.8-13.7 5-27.6 7.3-41.6a1160 1160 0 0 1 7.2-41.8c2.5-13.3 5-26.5 5.6-40.2.3-7.4 6.6-11 12.5-14.5l1.3-.8.5-.2.4-.3c3.2-2 6.7-4 6.2-8.3-.5-4-3.9-5-7.3-6l-1.3-.4c-10.2-3-20.7-5.2-31.1-7.4a299.7 299.7 0 0 1-39.6-10.2l-20.3-7c-13.9-4.9-27.7-9.6-41.3-15a1511.4 1511.4 0 0 1-77.9-32.1 1475.9 1475.9 0 0 1-87-43.7 346 346 0 0 0-58-26c19.6 34.7 23.1 72.8 26.7 110.8.9 9.7 1.8 19.3 3 28.8 1.5 12.7-3 23.5-13.6 30-12.3 7.4-25.3 6.2-37.6-1.4l-3-2.2c-2.2-2-4.6-4-8.3-3.8-.4 49.6 0 99.2.2 148.8.6 101.4 1.2 203-3.3 305a41.8 41.8 0 0 1-16.6.3c.5-20.4 1.5-40.6 2.4-60.7 1-23.4 2.1-46.7 2.7-70 .8-39.9.6-79.7.4-119.6l-.2-22.4c-.2-53-.8-106.1-1.3-159.2l-.2-19.9c0-2 .1-4 .4-5.9.5-5.5 1.1-11-3.3-16.2-6.8-8-13.3-16.1-19.8-24.3L834 178.6a96 96 0 0 0-27-21.6c-10.4-6-14.9-3-17.3 8.3-1.5 6.7-.8 13.2 0 19.7.4 3.7.8 7.4.8 11 .4 80.8-1.6 161.5-4.3 242.2-1.5 45-2.4 90.3-3.1 135.4-.4 23.7-1.5 47.4-2.5 71-.8 16.5-1.5 33-2 49.6-4 0-9.9-.5-13.8-1.3.8-23.1 2-48.1 3-70.2a1987 1987 0 0 0 2.5-58.5c.1-34.5 1.5-99.8 2.8-162.4 1.1-52.7 2.2-103.4 2.5-132.4a6422.8 6422.8 0 0 0 0-105.7c-11.4-1.8-21 3.7-29.6 11.7a60 60 0 0 1-28.4 14.2c-40.4 9-81.3 11.7-122.4 5-21.3-3.4-41.6-9.6-57.9-25-3-3-6.5-5.6-10.6-8.6a374 374 0 0 1-6.7-5.1c0 4.7 1 20.7 2.4 40.7 2.2 33.3 5.2 77.9 5.3 100.7 0 18.2.9 36.4 1.7 54.6l.9 19c0 2.4 5 251 5 305.2v3.5c-.1 4.8-.3 9.7 1.7 14.4-5.6.1-11-.2-16.6-1 1.8-17.9-.6-131.4-2.4-212.6-.8-37.8-1.4-68.6-1.4-79.5 0-41-2.2-82.1-4.4-123.1-1.8-35.9-3.7-71.7-4.2-107.6-.1-10.7-2.9-16.2-13.3-19.5-10.6-3.5-17.7.8-23.5 8-9.7 12-20.3 23-31.9 33.2a61.8 61.8 0 0 0-23.4 49.5c-1 54.5 1 108.8 2.9 163.2 1.9 53.2 3.7 106.4 2.9 159.6-.5 29.7.2 59.5 1 89.2l.8 40.6h-14.3Zm513-569.4c-4.1-23.4-13.4-45-31.4-60.1-23.8-20-52.1-32.5-80.7-45l-14.8-6.6a44.6 44.6 0 0 1 6.6 40.4 133 133 0 0 1-18.5 36.5c-12.7 16.8-19.9 35.7-14.7 58.5 14.7-8.2 28.4-13 44.9-4.6a123.6 123.6 0 0 1 43.1 39c13.6 18.2 27.3 36 46.2 49.1 7.6 5.3 15.7 5 23.3 2 7.7-3.1 7.6-10.8 6.8-17.9-1-9-1.5-18.1-2-27.3-1.4-21-2.7-42.2-8.8-64Zm-397.8-8c-2.6-4.6-5.1-9.3-7.5-14.2a24155 24155 0 0 0-12.2-27.3c84 49.3 169.7 54.2 259.7 13.3l-3.2 7.4c-3.6 8.2-7 16-8.7 24.6l-.6 3c-.9 4-1.7 8-1.4 12.2 1.2 20-4.4 27.7-23.4 34.7-31.6 11.6-64.2 13-97.3 11a243 243 0 0 0-24.4-.4c-19.7.7-35.9-8.2-52-17.2l-6.5-3.5a17.8 17.8 0 0 1-7.6-10c-3.3-12-9.1-22.8-15-33.5Z" fill="#fff"/></g><g transform="translate(266 207)"><path d="M420.3 398c13.4-41.8 105.4-130.4 197-130.4 53.9 0 144.2 33.9 172 64.1 27.6 30.2 28 83.9 28 83.9s-11.7-15.1-34-34.5a237 237 0 0 0-138.5-54.4c-156.9-7-224.5 97.9-224.5 97.9v-26.7Z" fill="#fff"/><path fill-rule="evenodd" clip-rule="evenodd" d="M528.1 990c-48.3 3-94.2-4-140-15.3l-2.7-.7-2.7-.7a591.7 591.7 0 0 0-84.2-16.5c-22.3-2.2-43.3 3.8-64.3 9.8l-8 2.3a382.1 382.1 0 0 0-59.4 20.7c-4.3 2-11.3 4.2-16.6-.3-1-3.6.8-5.3 2.8-7l1.6-1.6.3-.4c6.9-7.4 13.2-14.3 5.5-26.1-5.7-8.8 2.6-29.3 13.2-35.9 31.1-19.2 63.7-34.2 101.7-32h1.3c2.8.3 6 .7 9.4-3.2l-6.7-.1c-14.8-.3-28.6-.6-42.3 2.2-1.9.4-3.7 1-5.5 1.5a75.4 75.4 0 0 1-7 2c-9 2.3-18.2 4.6-25.4-4.8a32 32 0 0 1-3-36.2c11-19 10.7-38 5.6-57.8a96.8 96.8 0 0 1 7.9-72.9c5.7-10.6 14.6-18.9 25.4-19.2 9.1-.3 18.3-1.1 27.4-2 22.3-1.9 44.5-3.8 66.7 1.3 4.8 1.2 9.4 3.3 14.5 5.8l8.2 3.7c-.6-6-9.6-10.7-22-17.2-42.2-22.2-123.5-65.1-45.9-247.9 12.7-29.7 39-58.7 59.8-81.7 13.6-15 24.8-27.4 28.3-35.7a299.8 299.8 0 0 1 23.6-46c28.8-44.6 63-83.6 110-109.2 22.9-12.4 48-18.5 74-22.6A213 213 0 0 1 685 157.6c29.2 10.4 54.3 29.7 76.7 51.4 5.5 5.4 11.6 10.7 18 16.1 36 31 81.2 70 94.3 198a443 443 0 0 1-3.3 103l-3.3 22.8c-6.2 42.6-14.8 101-5.8 135.3l.5 2.4c.6 3 1.2 5.9 3.7 8.1 15.3 14 18.4 32.9 20.2 52 1.3 14.5 3.7 28.7 8.7 42.4 7.8 21.4 5.8 40.5-12 56.8a72 72 0 0 0-16.9 24.8l30-25.4c18.7 16.7 13 33-2.2 55.5-16 23.7-42 34.9-67.5 45.8l-1 .4c-41.2 17.8-84.7 28.2-128.1 38.7-4.4 1-8.8 2-13.1 3.2-18 4.3-37 3.5-56 2.6l-11.2-.4c-23.4-.8-46.7-2.1-70-4.6-3.7-.4-7.6.7-11.8 1.8-2.2.6-4.4 1.3-6.8 1.7Zm21.3-647.2c-44.7 12.7-83.7 34.8-114.2 70.1-12.7 14.8-25.3 30.8-29.8 50.1-13.3 56.6-6 112.5 11.7 167 15.1 46.9 39 90.5 70.6 128.4a334.8 334.8 0 0 0 74 69c1.5 1 3.2 1.9 5 2.8 7 4 14.6 8.2 15 18.5.3 2.3 2.3 4 4.6 3.8 6.6-.3 13.3.2 20 .6 14.2 1 28.4 2 41.7-4.4 8.1-4 16.8-4.9 25.4-5.8 8.7-1 17.2-1.9 25.2-5.8 1.4-.6 4.2.8 5.9 1.8 6 4 11.3 2.1 16.5-1.4a170 170 0 0 0 40.6-37.7c28.7-37.4 43.6-80.1 55.1-125.7 6.3-24.8 7.2-49.8 8.2-74.8a462 462 0 0 1 4.4-56.7c3.1-19 0-39-3.1-59l-2.9-19.4c-2-15.9-4.1-32.5-13.8-46-40.4-56-98.2-79.7-164.7-85.5-32.2-2.9-64.6.6-95.4 10ZM425 409c10.8-36.2 64.5-86 124.1-109.1 111.3-39.1 235.5 3.9 255.6 95.6-52.6-55.4-118.8-75.6-192.7-72.3-73.5 3.3-137.2 30.1-187 85.8Z" fill="#000"/></g><g transform="translate(791 871)"><path d="M175 75.5c8.2-5 11.5-.1 14.5 5.4-11.4 17-50 20.1-60.7 3.4 15-5.2 31.3-1.5 46.1-8.8Z" fill="#000"/></g><g transform="translate(653 805)"></g><g transform="translate(901 668)"><path d="M10.2 187.7c5-8.1 10.6-4.3 16.6-2.2 14.4 5 28.7 11 44 1.7 7.5-4.5 15.5-8.2 15.6-18.1 0-7.2-15-19.6-24.1-20.4-6.8-.6-13.7-.3-20.5-.5-4 0-8.2-.4-9.1-5-.9-4.5 2.5-7 6.2-8.7 21.8-10.6 68.2 8.4 62.8 40.3-1.6 9.3-14.4 25.4-23.7 27.4-17.3 3.7-34.7 4-51.9-.2-7.2-1.8-13-6-15.9-14.3Z" fill="#000"/></g><g transform="translate(610 680)"><path d="M409.2 75.7c13.1.3 25.4 1 37.7 2.5 3 .3 4.9 3.3 5 6.6 0 3.4-1.8 5.7-4.8 7-11.1 4.9-22 8.3-33.7.2-6.5-4.4-8.9-8.6-4.2-16.3ZM254.7 78.4c6.2 3.3 5.2 7 2.1 10.8-6.5 8-28.2 10-36.4 3.5-4.7-3.8-7.3-8.6-4.4-14.4 3-6 8.2-5 13-2.5 8 4 16.4 3 25.7 2.6Z" fill="#000"/></g><g transform="translate(610 680)"></g><g transform="translate(774 657)"><path d="M15 39C23.8 24.6 37 20.4 51.9 19c23.2-2.3 44 8.5 65.9 12.8 8 1.5 6.8 7.5 1.4 10.7-9.4 5.7-19.5 11-31.2 7-22.5-7.6-45.1-12-68.6-4.1-6.2 2-5-2-4.2-6.3ZM255 29c15-2.6 28.7-5.3 42.2 1.5 10.8 5.5 15 14 12.9 25.5-5 3.1-7.5-.4-10.6-2.5-11.6-7.9-23.9-10-37.3-4.6-9.3 3.7-19.2 2.4-29 2.4-4.7 0-8.4-1.8-8.7-7-.4-5.5.9-10.8 6.9-12 7.3-1.7 15-2.2 23.7-3.3Z" fill="#000"/></g><g transform="translate(0 559)"><path d="m1369.5 1191.9-128.5 2s7-41.4 11.6-56c9.8-31.4-14.4-32.9-18.4-54-4-21.3 2.4-25.6 4.4-37.3 2-11.8-7.8-10.6-14.4-17.2-6.6-6.7-2.4-8 .8-19.3s-21-5.7-33.7-24c-12.7-18.2-7.6-36-7.6-36s-14.4-2.4-12-17.2c2.4-14.8 8-34 26-43.7 18-9.6 118.8-22 118.8-22s-8-87.1-8.7-105.7c-.6-18.5 6-66.4 21.9-68.6 15.8-2.3 24.2 56.2 28.6 82.6 4.4 26.5 33.6 111 36.8 136.6 3.2 25.6-5.2 102.9-6 116-.8 13.3-17.6 44.9-24 64.1-6.4 19.2 4.4 99.7 4.4 99.7Z" fill="#fff"/><path d="M1237.4 1194c-1-17.5 5-34 7.8-51.2 2.1-13.5 2.7-24.2-7.5-36.2a45 45 0 0 1-5.4-51.6c3.8-7.4 2.8-11.7-4.5-15.3-18.4-9.2-19.8-14.8-8.9-33.4-28.1-6.6-38.4-19-39.8-47.3-.1-2.5.2-6-1.2-7.3-23.7-20.8-3.2-37.3 5.8-54.2 6.7-12.5 18.8-17.5 33.3-20 26.5-4.4 52.6-10.3 79.7-9.4 7 .2 9.5-3.4 10.7-10 2.8-16.1.4-32.4-1-48.3-1.9-22.8-5.3-50.3-3-73.5 1.6-14.6 24-50 27.8-50.1 8.7-.3 13.2 3.3 14 12.6.5 6.3 7.2 47.4 10.1 59 9 35.6 24.3 70 36.5 118.3 28.8 113.4-1.4 160.2-17.9 218.8-9.9 35 5.8 99.2 5.8 99.2s-12.2 0-19.3-1c-2.6-26-4.4-50.9-5.7-75.8-.8-14.7-1.5-29.2 6.7-43 8.4-14.2 16.7-29 19.5-45.5 6-33.5 10.1-67.3 8.2-101.6-.4-8.5-2.8-16.4-4.7-24.6-3.3-14.5-10-27.7-14.8-41.4-6.3-17.5-4.4-36.3-11.5-53.3-2.8-6.7-3.8-13.8-5.2-20.9-6-29.2-13.1-58.2-20-88.2a24.1 24.1 0 0 0-12.7 20c-1 15.8-4.7 31.3-3.3 47.1 2.4 29 2.9 58.2 7 87.1.7 6 2.2 10.8 7.6 13.8 3.6 2 6.1 5 4.7 9.4-1.6 5-6 4.1-9.6 3.1-4-1-7.5.1-11.3.1-24 .2-47 6.7-70.8 9-25.3 2.3-49.7 9-59 38-1.1 3.5-4.9 7.2-1.2 10.2 3.2 2.7 6.6 5.8 12.5 3.5 38-14.5 77.8-16.5 117.9-15.5 5.5.3 11 1.7 16 4.2 3.3 1.7 6 3.6 4.8 7.7-1 3.5-4.2 3.7-7.4 3.3-24.8-2.7-49.1 1.9-73.6 4.4-16.4 1.6-33 2.4-48.5 9-6.3 2.8-11.5 6-12.5 13.1-1 7.3 1.8 13.2 7.5 18 4.7 4 10 4.1 15.7 4.1h112.5c5.1 0 10.2.4 15.3 1 2.5.2 5 1.7 5.2 4.7.4 2.8-1.3 4.7-3.4 6.4-3 2.2-6.4 2.1-9.8 2.5-22.9 2.7-45.9 1.6-68.9 1.6-15.5 0-29 4.4-40 17.5 15 7.5 28.9 15.6 43.5 21.5 14.8 5.9 32.6-3 48.2 7-17 15.3-39.6 15.2-73 .5-2 18.2-8.4 36 8.4 51 6 5.3 8 12.3 8.3 20.5.9 24.6-7.3 47.7-11.3 71.5h-14.3Z" fill="#000"/></g></g></svg>